<svg viewBox="0 0 24 24" xmlns="http://www.w3.org/2000/svg" role="img" aria-label="Cloudflare">
  <path d="M16.3 16.5c.3-1 .2-1.9-.3-2.6-.5-.6-1.3-1-2.2-1l-9 .1c-.1 0-.1 0-.2-.1v-.2c0-.1.1-.2.2-.2l9.1-.1c1.1-.1 2.2-1 2.6-2l.6-1.6c0-.1 0-.1 0-.2A5.7 5.7 0 0 0 6.4 9.4a2.6 2.6 0 0 0-4 2.6A3.6 3.6 0 0 0 0 15.5c0 .2 0 .3.1.5 0 .1.1.1.2.1h15.6c.1 0 .2-.1.2-.2z" fill="#F6821F"/>
  <path d="M19 9.3h-.3c-.1 0-.1 0-.1.1l-.4 1.4c-.3 1-.2 1.9.3 2.6.5.6 1.3 1 2.2 1l1.9.1c.1 0 .1 0 .2.1v.2c0 .1-.1.2-.2.2l-2 .1c-1.1.1-2.2 1-2.6 2l-.1.5c0 .1 0 .1.1.1h6.8c.1 0 .1 0 .1-.1.1-.4.2-.9.2-1.4A4.9 4.9 0 0 0 19 9.3z" fill="#FBAD41" transform="translate(-2)"/>
</svg>
