<svg viewBox="0 0 24 24" xmlns="http://www.w3.org/2000/svg" role="img" aria-label="Docker">
  <g fill="#2496ED">
    <rect x="4.6" y="9.1" width="2.2" height="2.1" rx=".2"/>
    <rect x="7.3" y="9.1" width="2.2" height="2.1" rx=".2"/>
    <rect x="10" y="9.1" width="2.2" height="2.1" rx=".2"/>
    <rect x="12.7" y="9.1" width="2.2" height="2.1" rx=".2"/>
    <rect x="7.3" y="6.5" width="2.2" height="2.1" rx=".2"/>
    <rect x="10" y="6.5" width="2.2" height="2.1" rx=".2"/>
    <rect x="12.7" y="6.5" width="2.2" height="2.1" rx=".2"/>
    <rect x="12.7" y="3.9" width="2.2" height="2.1" rx=".2"/>
    <path d="M23 10.3c-.6-.4-1.9-.55-2.9-.35-.13-.95-.63-1.78-1.53-2.5l-.5-.34-.34.5c-.43.66-.58 1.6-.28 2.45.13.4.38.83.7 1.1-.35.2-1 .43-1.85.43H1.4c-.34 1.7.12 3.9 1.35 5.35C4 18.35 5.9 19 8.3 19c5.2 0 9.15-2.45 10.95-6.85.72.02 2.3.02 3.1-1.55.05-.08.2-.4.3-.6z"/>
  </g>
</svg>
