<svg viewBox="0 0 24 24" xmlns="http://www.w3.org/2000/svg" role="img" aria-label="PostgreSQL">
  <g fill="none" stroke="#336791" stroke-width="1.3" stroke-linecap="round" stroke-linejoin="round">
    <path d="M16.7 4.7c-1.4-.8-3.6-1-5.5-.3-.9-.2-1.9-.2-2.8.3C6.4 5.8 5.5 8 5.8 10.6c.2 2 .9 4.1 2 5.4.5.6 1.3.9 1.8.3.4-.4.4-1 .3-1.7"/>
    <path d="M16.7 4.7c1.4.9 2 2.9 1.8 5.1-.2 1.7-.8 3.4-1.6 4.5-.5.6-1.2.9-1.6.2"/>
    <path d="M12.3 14.6c.2 1.3.2 2.8-.3 4.1"/>
    <path d="M14.9 14c.4 1.2.6 2.7.3 4"/>
  </g>
  <circle cx="9.4" cy="8.5" r=".7" fill="#336791"/>
</svg>
