<svg viewBox="0 0 24 24" xmlns="http://www.w3.org/2000/svg" role="img" aria-label="Python">
  <path fill="#3776AB" d="M11.9 2c-1.6 0-3 .15-3.8.75-.95.7-1 1.55-1 2.85v1.5h5v.7H5.1c-1.35 0-2.55.8-2.9 2.35-.4 1.75-.42 2.85 0 4.65.3 1.4 1.1 2.4 2.45 2.4H6.4v-1.95c0-1.5 1.3-2.85 2.85-2.85h4.9c1.2 0 2.15-.98 2.15-2.2V5.6c0-1.2-1-2.1-2.2-2.3C15.05 3.1 12.9 2 11.9 2zM9.15 4.3c.5 0 .9.4.9.9s-.4.9-.9.9-.9-.4-.9-.9.4-.9.9-.9z"/>
  <path fill="#FFD43B" d="M18.75 8.55v1.9c0 1.5-1.3 2.85-2.85 2.85h-4.9c-1.2 0-2.15.98-2.15 2.2v4.1c0 1.2 1.05 1.9 2.2 2.25 1.4.4 2.8.45 4.2 0 1.1-.35 2.2-1.05 2.2-2.25V19.5h-5v-.7h6.15c1.35 0 1.85-.95 2.35-2.4.5-1.5.48-2.9 0-4.65-.35-1.35-1-2.4-2.35-2.4h-.85zM15.7 18.55c.5 0 .9.4.9.9s-.4.9-.9.9-.9-.4-.9-.9.4-.9.9-.9z"/>
</svg>
