<svg viewBox="0 0 24 24" xmlns="http://www.w3.org/2000/svg" role="img" aria-label="Tailwind CSS">
  <path fill="#38BDF8" d="M12 6c-2.67 0-4.33 1.33-5 4 1-1.33 2.17-1.83 3.5-1.5.76.19 1.3.74 1.91 1.35C13.4 10.85 14.55 12 17 12c2.67 0 4.33-1.33 5-4-1 1.33-2.17 1.83-3.5 1.5-.76-.19-1.3-.74-1.91-1.35C15.6 7.15 14.45 6 12 6zM7 12c-2.67 0-4.33 1.33-5 4 1-1.33 2.17-1.83 3.5-1.5.76.19 1.3.74 1.91 1.35C8.4 16.85 9.55 18 12 18c2.67 0 4.33-1.33 5-4-1 1.33-2.17 1.83-3.5 1.5-.76-.19-1.3-.74-1.91-1.35C10.6 13.15 9.45 12 7 12z"/>
</svg>
