<?xml version="1.0" encoding="UTF-8"?>
<!DOCTYPE svg PUBLIC "-//W3C//DTD SVG 1.1//EN" "http://www.w3.org/Graphics/SVG/1.1/DTD/svg11.dtd">
<!-- Creator: CorelDRAW -->
<svg xmlns="http://www.w3.org/2000/svg" xml:space="preserve" width="210mm" height="297mm" version="1.1" style="shape-rendering:geometricPrecision; text-rendering:geometricPrecision; image-rendering:optimizeQuality; fill-rule:evenodd; clip-rule:evenodd"
viewBox="5000 11400 10800 7900"
 xmlns:xlink="http://www.w3.org/1999/xlink"
 xmlns:xodm="http://www.corel.com/coreldraw/odm/2003">
 <defs>
  <style type="text/css">
   <![CDATA[
    .fil0 {fill:#2F213F}
   ]]>
  </style>
 </defs>
 <g id="Слой_x0020_1">
  <metadata id="CorelCorpID_0Corel-Layer"/>
  <g id="_2557368596624">
   <path class="fil0" d="M8066.36 12170.89c813.64,1343.18 2672.17,1780.66 4065.66,822.89 511.1,-351.29 692.82,-683.82 973.99,-1188.27l1501.07 1516.98c-68.99,101.33 -1773.37,1792.95 -1830.08,1822.65 364.75,-616.95 529.05,-894.36 567.77,-1716.11l-1145.17 1.37c-33.82,539.36 -227.33,934.27 -497.64,1208.27 -1041.07,1055.28 -2938.93,323.88 -2922.56,-1210.07l-1145.25 0.99c1.48,369.17 60.05,690.28 179.83,1003.45 172.17,450.13 280.69,494.08 402.35,739.22l-923.09 -916.36c-149.46,-148.96 -846.11,-822.88 -920.16,-933.41 22.1,-46.77 1375.97,-1410.94 1493.74,-1503.73 74.88,95.59 134.53,244.81 199.54,352.13zm4386.07 3323.81c69.43,-65.49 118.13,-139.66 198.46,-196.84l676.22 668.07c105.94,-39.82 1964.17,-1937.17 2141.02,-2112.63 652.36,-647.24 321.31,-754.99 -551.06,-1632.69l-1429.37 -1428.41c-185.68,-185.22 -121.34,-136.76 -582.79,-136.76 -150.29,0 -591.91,-19.14 -706.88,12.69 -51.87,953.48 -730.45,1692.82 -1706.46,1697.44 -935.51,4.43 -1729.81,-780.12 -1711.81,-1710.04 -233.75,-0.34 -467.5,-0.09 -701.26,-0.09 -440.28,0 -400.69,-50.1 -582.58,136.95l-1419.33 1417.08c-218.8,206.36 -517.12,501.5 -710.49,707.82 -105.17,112.21 -228.92,254.61 -180.5,505.27 35.68,184.67 209.79,316.77 305.65,412.43 241.46,240.95 466.55,469.59 710.53,708.35 243.89,238.67 467.9,468.4 710.02,708.04 125.64,124.35 233.91,234.62 359.85,359.8 111.81,111.13 247.21,263.7 362.32,356.56l692.9 -674.7c241.25,262.6 481.64,485.84 884.5,684.81 381.51,188.42 793.47,302.31 1280.08,301.72 766.11,-0.93 1439.92,-293.28 1960.98,-784.87z"/>
   <path class="fil0" d="M12051.06 16893.19c-245.38,581.03 -856.42,1018.21 -1559.41,1018.36 -950.1,0.22 -1704.04,-761.16 -1713.33,-1708.62l-1143.36 -1.43c-24.58,1574.6 1299.86,2855.11 2856.49,2850.21 874.49,-2.76 1597.77,-402.41 2015.18,-835.42 502.52,-521.3 767.73,-1030.66 839.04,-2010.12l-1145.8 -4.8c-22.78,283.52 -46.41,449.34 -148.81,691.82z"/>
  </g>
 </g>
</svg>
